<svg width="161" height="48" viewBox="0 0 161 48" fill="none" xmlns="http://www.w3.org/2000/svg">
<rect width="161" height="48" fill="#EB9B00"/>
<path d="M39.5716 30.112C38.7503 30.112 38.0143 29.9787 37.3636 29.712C36.713 29.4453 36.1903 29.0507 35.7956 28.528C35.4116 28.0053 35.209 27.376 35.1876 26.64H38.0996C38.1423 27.056 38.2863 27.376 38.5316 27.6C38.777 27.8133 39.097 27.92 39.4916 27.92C39.897 27.92 40.217 27.8293 40.4516 27.648C40.6863 27.456 40.8036 27.1947 40.8036 26.864C40.8036 26.5867 40.7076 26.3573 40.5156 26.176C40.3343 25.9947 40.105 25.8453 39.8276 25.728C39.561 25.6107 39.177 25.4773 38.6756 25.328C37.9503 25.104 37.3583 24.88 36.8996 24.656C36.441 24.432 36.0463 24.1013 35.7156 23.664C35.385 23.2267 35.2196 22.656 35.2196 21.952C35.2196 20.9067 35.5983 20.0907 36.3556 19.504C37.113 18.9067 38.0996 18.608 39.3156 18.608C40.553 18.608 41.5503 18.9067 42.3076 19.504C43.065 20.0907 43.4703 20.912 43.5236 21.968H40.5636C40.5423 21.6053 40.409 21.3227 40.1636 21.12C39.9183 20.9067 39.6036 20.8 39.2196 20.8C38.889 20.8 38.6223 20.8907 38.4196 21.072C38.217 21.2427 38.1156 21.4933 38.1156 21.824C38.1156 22.1867 38.2863 22.4693 38.6276 22.672C38.969 22.8747 39.5023 23.0933 40.2276 23.328C40.953 23.5733 41.5396 23.808 41.9876 24.032C42.4463 24.256 42.841 24.5813 43.1716 25.008C43.5023 25.4347 43.6676 25.984 43.6676 26.656C43.6676 27.296 43.5023 27.8773 43.1716 28.4C42.8516 28.9227 42.3823 29.3387 41.7636 29.648C41.145 29.9573 40.4143 30.112 39.5716 30.112ZM44.8074 25.52C44.8074 24.6027 44.978 23.7973 45.3194 23.104C45.6714 22.4107 46.146 21.8773 46.7434 21.504C47.3407 21.1307 48.0074 20.944 48.7434 20.944C49.3727 20.944 49.922 21.072 50.3914 21.328C50.8714 21.584 51.2394 21.92 51.4954 22.336V21.072H54.2314V30H51.4954V28.736C51.2287 29.152 50.8554 29.488 50.3754 29.744C49.906 30 49.3567 30.128 48.7274 30.128C48.002 30.128 47.3407 29.9413 46.7434 29.568C46.146 29.184 45.6714 28.6453 45.3194 27.952C44.978 27.248 44.8074 26.4373 44.8074 25.52ZM51.4954 25.536C51.4954 24.8533 51.3034 24.3147 50.9194 23.92C50.546 23.5253 50.0874 23.328 49.5434 23.328C48.9994 23.328 48.5354 23.5253 48.1514 23.92C47.778 24.304 47.5914 24.8373 47.5914 25.52C47.5914 26.2027 47.778 26.7467 48.1514 27.152C48.5354 27.5467 48.9994 27.744 49.5434 27.744C50.0874 27.744 50.546 27.5467 50.9194 27.152C51.3034 26.7573 51.4954 26.2187 51.4954 25.536ZM57.5868 20.144C57.1068 20.144 56.7121 20.0053 56.4028 19.728C56.1041 19.44 55.9548 19.088 55.9548 18.672C55.9548 18.2453 56.1041 17.8933 56.4028 17.616C56.7121 17.328 57.1068 17.184 57.5868 17.184C58.0561 17.184 58.4401 17.328 58.7388 17.616C59.0481 17.8933 59.2028 18.2453 59.2028 18.672C59.2028 19.088 59.0481 19.44 58.7388 19.728C58.4401 20.0053 58.0561 20.144 57.5868 20.144ZM58.9468 21.072V30H56.2108V21.072H58.9468ZM63.6655 22.336C63.9215 21.92 64.2895 21.584 64.7695 21.328C65.2495 21.072 65.7988 20.944 66.4175 20.944C67.1535 20.944 67.8202 21.1307 68.4175 21.504C69.0148 21.8773 69.4842 22.4107 69.8255 23.104C70.1775 23.7973 70.3535 24.6027 70.3535 25.52C70.3535 26.4373 70.1775 27.248 69.8255 27.952C69.4842 28.6453 69.0148 29.184 68.4175 29.568C67.8202 29.9413 67.1535 30.128 66.4175 30.128C65.7882 30.128 65.2388 30.0053 64.7695 29.76C64.3002 29.504 63.9322 29.168 63.6655 28.752V30H60.9295V18.16H63.6655V22.336ZM67.5695 25.52C67.5695 24.8373 67.3775 24.304 66.9935 23.92C66.6202 23.5253 66.1562 23.328 65.6015 23.328C65.0575 23.328 64.5935 23.5253 64.2095 23.92C63.8362 24.3147 63.6495 24.8533 63.6495 25.536C63.6495 26.2187 63.8362 26.7573 64.2095 27.152C64.5935 27.5467 65.0575 27.744 65.6015 27.744C66.1455 27.744 66.6095 27.5467 66.9935 27.152C67.3775 26.7467 67.5695 26.2027 67.5695 25.52ZM71.2449 25.52C71.2449 24.6027 71.4155 23.7973 71.7569 23.104C72.1089 22.4107 72.5835 21.8773 73.1809 21.504C73.7782 21.1307 74.4449 20.944 75.1809 20.944C75.8102 20.944 76.3595 21.072 76.8289 21.328C77.3089 21.584 77.6769 21.92 77.9329 22.336V21.072H80.6689V30H77.9329V28.736C77.6662 29.152 77.2929 29.488 76.8129 29.744C76.3435 30 75.7942 30.128 75.1649 30.128C74.4395 30.128 73.7782 29.9413 73.1809 29.568C72.5835 29.184 72.1089 28.6453 71.7569 27.952C71.4155 27.248 71.2449 26.4373 71.2449 25.52ZM77.9329 25.536C77.9329 24.8533 77.7409 24.3147 77.3569 23.92C76.9835 23.5253 76.5249 23.328 75.9809 23.328C75.4369 23.328 74.9729 23.5253 74.5889 23.92C74.2155 24.304 74.0289 24.8373 74.0289 25.52C74.0289 26.2027 74.2155 26.7467 74.5889 27.152C74.9729 27.5467 75.4369 27.744 75.9809 27.744C76.5249 27.744 76.9835 27.5467 77.3569 27.152C77.7409 26.7573 77.9329 26.2187 77.9329 25.536ZM97.4309 20.976C98.5402 20.976 99.4202 21.312 100.071 21.984C100.732 22.656 101.063 23.5893 101.063 24.784V30H98.3429V25.152C98.3429 24.576 98.1882 24.1333 97.8789 23.824C97.5802 23.504 97.1642 23.344 96.6309 23.344C96.0975 23.344 95.6762 23.504 95.3669 23.824C95.0682 24.1333 94.9189 24.576 94.9189 25.152V30H92.1989V25.152C92.1989 24.576 92.0442 24.1333 91.7349 23.824C91.4362 23.504 91.0202 23.344 90.4869 23.344C89.9535 23.344 89.5322 23.504 89.2229 23.824C88.9242 24.1333 88.7749 24.576 88.7749 25.152V30H86.0389V21.072H88.7749V22.192C89.0522 21.8187 89.4149 21.5253 89.8629 21.312C90.3109 21.088 90.8175 20.976 91.3829 20.976C92.0549 20.976 92.6522 21.12 93.1749 21.408C93.7082 21.696 94.1242 22.1067 94.4229 22.64C94.7322 22.1493 95.1535 21.7493 95.6869 21.44C96.2202 21.1307 96.8015 20.976 97.4309 20.976ZM102.432 25.52C102.432 24.6027 102.603 23.7973 102.944 23.104C103.296 22.4107 103.771 21.8773 104.368 21.504C104.966 21.1307 105.632 20.944 106.368 20.944C106.998 20.944 107.547 21.072 108.016 21.328C108.496 21.584 108.864 21.92 109.12 22.336V21.072H111.856V30H109.12V28.736C108.854 29.152 108.48 29.488 108 29.744C107.531 30 106.982 30.128 106.352 30.128C105.627 30.128 104.966 29.9413 104.368 29.568C103.771 29.184 103.296 28.6453 102.944 27.952C102.603 27.248 102.432 26.4373 102.432 25.52ZM109.12 25.536C109.12 24.8533 108.928 24.3147 108.544 23.92C108.171 23.5253 107.712 23.328 107.168 23.328C106.624 23.328 106.16 23.5253 105.776 23.92C105.403 24.304 105.216 24.8373 105.216 25.52C105.216 26.2027 105.403 26.7467 105.776 27.152C106.16 27.5467 106.624 27.744 107.168 27.744C107.712 27.744 108.171 27.5467 108.544 27.152C108.928 26.7573 109.12 26.2187 109.12 25.536ZM115.212 20.144C114.732 20.144 114.337 20.0053 114.028 19.728C113.729 19.44 113.58 19.088 113.58 18.672C113.58 18.2453 113.729 17.8933 114.028 17.616C114.337 17.328 114.732 17.184 115.212 17.184C115.681 17.184 116.065 17.328 116.364 17.616C116.673 17.8933 116.828 18.2453 116.828 18.672C116.828 19.088 116.673 19.44 116.364 19.728C116.065 20.0053 115.681 20.144 115.212 20.144ZM116.572 21.072V30H113.836V21.072H116.572ZM122.187 30.128C121.408 30.128 120.715 29.9947 120.107 29.728C119.499 29.4613 119.019 29.0987 118.667 28.64C118.315 28.1707 118.117 27.648 118.075 27.072H120.779C120.811 27.3813 120.955 27.632 121.211 27.824C121.467 28.016 121.781 28.112 122.155 28.112C122.496 28.112 122.757 28.048 122.939 27.92C123.131 27.7813 123.227 27.6053 123.227 27.392C123.227 27.136 123.093 26.9493 122.827 26.832C122.56 26.704 122.128 26.5653 121.531 26.416C120.891 26.2667 120.357 26.112 119.931 25.952C119.504 25.7813 119.136 25.52 118.827 25.168C118.517 24.8053 118.363 24.32 118.363 23.712C118.363 23.2 118.501 22.736 118.779 22.32C119.067 21.8933 119.483 21.5573 120.027 21.312C120.581 21.0667 121.237 20.944 121.995 20.944C123.115 20.944 123.995 21.2213 124.635 21.776C125.285 22.3307 125.659 23.0667 125.755 23.984H123.227C123.184 23.6747 123.045 23.4293 122.811 23.248C122.587 23.0667 122.288 22.976 121.915 22.976C121.595 22.976 121.349 23.04 121.179 23.168C121.008 23.2853 120.923 23.4507 120.923 23.664C120.923 23.92 121.056 24.112 121.323 24.24C121.6 24.368 122.027 24.496 122.603 24.624C123.264 24.7947 123.803 24.9653 124.219 25.136C124.635 25.296 124.997 25.5627 125.307 25.936C125.627 26.2987 125.792 26.7893 125.803 27.408C125.803 27.9307 125.653 28.4 125.355 28.816C125.067 29.2213 124.645 29.5413 124.091 29.776C123.547 30.0107 122.912 30.128 122.187 30.128Z" fill="white"/>
</svg>
